<?xml version="1.0" encoding="UTF-8"?>
<!DOCTYPE svg  PUBLIC '-//W3C//DTD SVG 1.1//EN'  'http://www.w3.org/Graphics/SVG/1.1/DTD/svg11.dtd'>
<svg width="1019pt" height="438pt" viewBox="0 0 1018.6 437.55" xmlns="http://www.w3.org/2000/svg">
 <g id="graph0" class="graph" transform="scale(1) translate(4 433.55)">
  <title>%3</title>
  <polygon points="-4 4 -4 -433.55 1014.6 -433.55 1014.6 4" fill="#fff" stroke="transparent"/>
  <g id="node1" class="node">
   <title>a</title>
   <ellipse cx="501.8" cy="-411.55" rx="18" ry="18" fill="#ffc0cb" stroke="#000" stroke-width="2"/>
  </g>
  <g id="node2" class="node">
   <title>E</title>
   <ellipse cx="384.8" cy="-338.45" rx="19.184" ry="19.184" fill="none" stroke="#000" stroke-width="2"/>
   <text x="379.299" y="-335.6544" fill="#000000" font-family="sans-serif" font-size="16" font-weight="bold">E</text>
  </g>
  <g id="edge1" class="edge">
   <title>a-&gt;E</title>
   <path d="m486.5-401.99c-19.467 12.162-53.356 33.333-76.627 47.87" fill="none" stroke="#000" stroke-width="2"/>
   <polygon points="411.56 -351.05 401.23 -348.72 407.86 -356.99" stroke="#000" stroke-width="2"/>
  </g>
  <g id="node3" class="node">
   <title>T</title>
   <ellipse cx="614.8" cy="-338.45" rx="19.184" ry="19.184" fill="none" stroke="#000" stroke-width="2"/>
   <text x="609.299" y="-335.6544" fill="#000000" font-family="sans-serif" font-size="16" font-weight="bold">T</text>
  </g>
  <g id="edge2" class="edge">
   <title>a-&gt;T</title>
   <path d="m517.04-401.69c18.743 12.124 50.807 32.864 73.081 47.271" fill="none" stroke="#000" stroke-width="2"/>
   <polygon points="592.21 -357.23 598.71 -348.86 588.41 -351.35" stroke="#000" stroke-width="2"/>
  </g>
  <g id="node4" class="node">
   <title>I</title>
   <ellipse cx="222.8" cy="-260.74" rx="18.27" ry="18.27" fill="none" stroke="#000" stroke-width="2"/>
   <text x="219.299" y="-257.9351" fill="#000000" font-family="sans-serif" font-size="16" font-weight="bold">I</text>
  </g>
  <g id="edge3" class="edge">
   <title>E-&gt;I</title>
   <path d="m367.46-330.14c-28.528 13.686-85.517 41.026-118.82 57.002" fill="none" stroke="#000" stroke-width="2"/>
   <polygon points="250.06 -269.93 239.53 -268.76 247.03 -276.24" stroke="#000" stroke-width="2"/>
  </g>
  <g id="node5" class="node">
   <title>A</title>
   <ellipse cx="384.8" cy="-260.74" rx="20.512" ry="20.512" fill="none" stroke="#000" stroke-width="2"/>
   <text x="378.299" y="-257.9351" fill="#000000" font-family="sans-serif" font-size="16" font-weight="bold">A</text>
  </g>
  <g id="edge4" class="edge">
   <title>E-&gt;A</title>
   <path d="m384.8-319.24v27.723" fill="none" stroke="#000" stroke-width="2"/>
   <polygon points="388.3 -291.36 384.8 -281.36 381.3 -291.36" stroke="#000" stroke-width="2"/>
  </g>
  <g id="node6" class="node">
   <title>N</title>
   <ellipse cx="614.8" cy="-260.74" rx="21.429" ry="21.429" fill="none" stroke="#000" stroke-width="2"/>
   <text x="607.799" y="-257.9351" fill="#000000" font-family="sans-serif" font-size="16" font-weight="bold">N</text>
  </g>
  <g id="edge5" class="edge">
   <title>T-&gt;N</title>
   <path d="m614.8-319.24v26.768" fill="none" stroke="#000" stroke-width="2"/>
   <polygon points="618.3 -292.19 614.8 -282.19 611.3 -292.19" stroke="#000" stroke-width="2"/>
  </g>
  <g id="node7" class="node">
   <title>M</title>
   <ellipse cx="788.8" cy="-260.74" rx="22.756" ry="22.756" fill="none" stroke="#000" stroke-width="2"/>
   <text x="780.799" y="-257.9351" fill="#000000" font-family="sans-serif" font-size="16" font-weight="bold">M</text>
  </g>
  <g id="edge6" class="edge">
   <title>T-&gt;M</title>
   <path d="m632.44-330.57c29.662 13.249 89.849 40.132 126.29 56.407" fill="none" stroke="#000" stroke-width="2"/>
   <polygon points="760.18 -277.35 767.89 -270.08 757.33 -270.96" stroke="#000" stroke-width="2"/>
  </g>
  <g id="node8" class="node">
   <title>S</title>
   <ellipse cx="136.8" cy="-178.07" rx="19.6" ry="19.6" fill="none" stroke="#000" stroke-width="2"/>
   <text x="130.799" y="-175.266" fill="#000000" font-family="sans-serif" font-size="16" font-weight="bold">S</text>
  </g>
  <g id="edge7" class="edge">
   <title>I-&gt;S</title>
   <path d="m209.36-247.82c-13.56 13.034-34.721 33.376-50.7 48.736" fill="none" stroke="#000" stroke-width="2"/>
   <polygon points="160.93 -196.4 151.29 -192 156.07 -201.45" stroke="#000" stroke-width="2"/>
  </g>
  <g id="node9" class="node">
   <title>U</title>
   <ellipse cx="222.8" cy="-178.07" rx="20.512" ry="20.512" fill="none" stroke="#000" stroke-width="2"/>
   <text x="216.299" y="-175.266" fill="#000000" font-family="sans-serif" font-size="16" font-weight="bold">U</text>
  </g>
  <g id="edge8" class="edge">
   <title>I-&gt;U</title>
   <path d="m222.8-241.98v33.002" fill="none" stroke="#000" stroke-width="2"/>
   <polygon points="226.3 -208.78 222.8 -198.78 219.3 -208.78" stroke="#000" stroke-width="2"/>
  </g>
  <g id="node10" class="node">
   <title>R</title>
   <ellipse cx="353.8" cy="-178.07" rx="20.512" ry="20.512" fill="none" stroke="#000" stroke-width="2"/>
   <text x="347.299" y="-175.266" fill="#000000" font-family="sans-serif" font-size="16" font-weight="bold">R</text>
  </g>
  <g id="edge9" class="edge">
   <title>A-&gt;R</title>
   <path d="m377.45-241.14c-3.822 10.192-8.5687 22.851-12.805 34.147" fill="none" stroke="#000" stroke-width="2"/>
   <polygon points="367.88 -205.65 361.09 -197.52 361.33 -208.11" stroke="#000" stroke-width="2"/>
  </g>
  <g id="node11" class="node">
   <title>W</title>
   <ellipse cx="416.8" cy="-178.07" rx="24.083" ry="24.083" fill="none" stroke="#000" stroke-width="2"/>
   <text x="407.799" y="-175.266" fill="#000000" font-family="sans-serif" font-size="16" font-weight="bold">W</text>
  </g>
  <g id="edge10" class="edge">
   <title>A-&gt;W</title>
   <path d="m392.22-241.56c3.6187 9.3487 8.0687 20.845 12.183 31.474" fill="none" stroke="#000" stroke-width="2"/>
   <polygon points="407.71 -211.24 408.05 -200.66 401.18 -208.72" stroke="#000" stroke-width="2"/>
  </g>
  <g id="node12" class="node">
   <title>D</title>
   <ellipse cx="585.8" cy="-178.07" rx="20.512" ry="20.512" fill="none" stroke="#000" stroke-width="2"/>
   <text x="579.299" y="-175.266" fill="#000000" font-family="sans-serif" font-size="16" font-weight="bold">D</text>
  </g>
  <g id="edge11" class="edge">
   <title>N-&gt;D</title>
   <path d="m607.63-240.3c-3.4929 9.9572-7.7561 22.11-11.585 33.026" fill="none" stroke="#000" stroke-width="2"/>
   <polygon points="599.3 -205.97 592.69 -197.7 592.69 -208.29" stroke="#000" stroke-width="2"/>
  </g>
  <g id="node13" class="node">
   <title>K</title>
   <ellipse cx="644.8" cy="-178.07" rx="20.512" ry="20.512" fill="none" stroke="#000" stroke-width="2"/>
   <text x="638.299" y="-175.266" fill="#000000" font-family="sans-serif" font-size="16" font-weight="bold">K</text>
  </g>
  <g id="edge12" class="edge">
   <title>N-&gt;K</title>
   <path d="m622.06-240.72c3.6378 10.024 8.1117 22.353 12.126 33.415" fill="none" stroke="#000" stroke-width="2"/>
   <polygon points="637.59 -208.2 637.71 -197.61 631.01 -205.81" stroke="#000" stroke-width="2"/>
  </g>
  <g id="node14" class="node">
   <title>G</title>
   <ellipse cx="788.8" cy="-178.07" rx="20.512" ry="20.512" fill="none" stroke="#000" stroke-width="2"/>
   <text x="782.299" y="-175.266" fill="#000000" font-family="sans-serif" font-size="16" font-weight="bold">G</text>
  </g>
  <g id="edge13" class="edge">
   <title>M-&gt;G</title>
   <path d="m788.8-237.71v28.702" fill="none" stroke="#000" stroke-width="2"/>
   <polygon points="792.3 -208.71 788.8 -198.71 785.3 -208.71" stroke="#000" stroke-width="2"/>
  </g>
  <g id="node15" class="node">
   <title>O</title>
   <ellipse cx="876.8" cy="-178.07" rx="21.429" ry="21.429" fill="none" stroke="#000" stroke-width="2"/>
   <text x="869.799" y="-175.266" fill="#000000" font-family="sans-serif" font-size="16" font-weight="bold">O</text>
  </g>
  <g id="edge14" class="edge">
   <title>M-&gt;O</title>
   <path d="m805.35-245.19c13.652 12.825 33.174 31.164 48.362 45.433" fill="none" stroke="#000" stroke-width="2"/>
   <polygon points="856.32 -202.11 861.21 -192.71 851.52 -197.01" stroke="#000" stroke-width="2"/>
  </g>
  <g id="node16" class="node">
   <title>H</title>
   <ellipse cx="76.799" cy="-96.811" rx="21.429" ry="21.429" fill="none" stroke="#000" stroke-width="2"/>
   <text x="69.799" y="-94.0112" fill="#000000" font-family="sans-serif" font-size="16" font-weight="bold">H</text>
  </g>
  <g id="edge15" class="edge">
   <title>S-&gt;H</title>
   <path d="m124.94-162.01c-8.4046 11.382-19.853 26.886-29.477 39.919" fill="none" stroke="#000" stroke-width="2"/>
   <polygon points="98.213 -119.92 89.457 -113.95 92.582 -124.08" stroke="#000" stroke-width="2"/>
  </g>
  <g id="node17" class="node">
   <title>V</title>
   <ellipse cx="136.8" cy="-96.811" rx="20.512" ry="20.512" fill="none" stroke="#000" stroke-width="2"/>
   <text x="130.299" y="-94.0112" fill="#000000" font-family="sans-serif" font-size="16" font-weight="bold">V</text>
  </g>
  <g id="edge16" class="edge">
   <title>S-&gt;V</title>
   <path d="m136.8-157.98v30.313" fill="none" stroke="#000" stroke-width="2"/>
   <polygon points="140.3 -127.51 136.8 -117.51 133.3 -127.51" stroke="#000" stroke-width="2"/>
  </g>
  <g id="node18" class="node">
   <title>F</title>
   <ellipse cx="194.8" cy="-96.811" rx="19.184" ry="19.184" fill="none" stroke="#000" stroke-width="2"/>
   <text x="189.299" y="-94.0112" fill="#000000" font-family="sans-serif" font-size="16" font-weight="bold">F</text>
  </g>
  <g id="edge17" class="edge">
   <title>U-&gt;F</title>
   <path d="m216.02-158.4c-3.4945 10.141-7.8155 22.68-11.645 33.792" fill="none" stroke="#000" stroke-width="2"/>
   <polygon points="207.6 -123.22 201.04 -114.91 200.98 -125.51" stroke="#000" stroke-width="2"/>
  </g>
  <g id="node19" class="node">
   <title>b</title>
   <ellipse cx="249.8" cy="-96.811" rx="18" ry="18" fill="#ffc0cb" stroke="#000" stroke-width="2"/>
  </g>
  <g id="edge18" class="edge">
   <title>U-&gt;b</title>
   <path d="m229.33-158.4c3.4414 10.356 7.7141 23.215 11.464 34.5" fill="none" stroke="#000" stroke-width="2"/>
   <polygon points="244.22 -124.69 244.06 -114.09 237.58 -122.48" stroke="#000" stroke-width="2"/>
  </g>
  <g id="node20" class="node">
   <title>L</title>
   <ellipse cx="303.8" cy="-96.811" rx="18.27" ry="18.27" fill="none" stroke="#000" stroke-width="2"/>
   <text x="298.799" y="-94.0112" fill="#000000" font-family="sans-serif" font-size="16" font-weight="bold">L</text>
  </g>
  <g id="edge19" class="edge">
   <title>R-&gt;L</title>
   <path d="m342.95-160.43c-7.0722 11.493-16.397 26.647-24.172 39.282" fill="none" stroke="#000" stroke-width="2"/>
   <polygon points="321.67 -119.17 313.44 -112.49 315.7 -122.84" stroke="#000" stroke-width="2"/>
  </g>
  <g id="node21" class="node">
   <title>c</title>
   <ellipse cx="357.8" cy="-96.811" rx="18" ry="18" fill="#ffc0cb" stroke="#000" stroke-width="2"/>
  </g>
  <g id="edge20" class="edge">
   <title>R-&gt;c</title>
   <path d="m354.81-157.56c0.486 9.8729 1.0764 21.867 1.6039 32.581" fill="none" stroke="#000" stroke-width="2"/>
   <polygon points="359.92 -124.98 356.91 -114.82 352.92 -124.63" stroke="#000" stroke-width="2"/>
  </g>
  <g id="node22" class="node">
   <title>P</title>
   <ellipse cx="413.8" cy="-96.811" rx="19.6" ry="19.6" fill="none" stroke="#000" stroke-width="2"/>
   <text x="407.799" y="-94.0112" fill="#000000" font-family="sans-serif" font-size="16" font-weight="bold">P</text>
  </g>
  <g id="edge21" class="edge">
   <title>W-&gt;P</title>
   <path d="m415.9-153.69c-0.3092 8.3749-0.6591 17.853-0.9834 26.636" fill="none" stroke="#000" stroke-width="2"/>
   <polygon points="418.4 -126.67 414.54 -116.8 411.41 -126.92" stroke="#000" stroke-width="2"/>
  </g>
  <g id="node23" class="node">
   <title>J</title>
   <ellipse cx="469.8" cy="-96.811" rx="18.27" ry="18.27" fill="none" stroke="#000" stroke-width="2"/>
   <text x="466.299" y="-94.0112" fill="#000000" font-family="sans-serif" font-size="16" font-weight="bold">J</text>
  </g>
  <g id="edge22" class="edge">
   <title>W-&gt;J</title>
   <path d="m430.17-157.56c7.2822 11.164 16.334 25.041 23.946 36.712" fill="none" stroke="#000" stroke-width="2"/>
   <polygon points="457.08 -122.72 459.61 -112.44 451.21 -118.9" stroke="#000" stroke-width="2"/>
  </g>
  <g id="node24" class="node">
   <title>B</title>
   <ellipse cx="527.8" cy="-96.811" rx="20.512" ry="20.512" fill="none" stroke="#000" stroke-width="2"/>
   <text x="521.299" y="-94.0112" fill="#000000" font-family="sans-serif" font-size="16" font-weight="bold">B</text>
  </g>
  <g id="edge23" class="edge">
   <title>D-&gt;B</title>
   <path d="m573.78-161.23c-8.0879 11.331-18.897 26.473-28.002 39.23" fill="none" stroke="#000" stroke-width="2"/>
   <polygon points="548.46 -119.73 539.8 -113.63 542.76 -123.8" stroke="#000" stroke-width="2"/>
  </g>
  <g id="node25" class="node">
   <title>X</title>
   <ellipse cx="586.8" cy="-96.811" rx="20.512" ry="20.512" fill="none" stroke="#000" stroke-width="2"/>
   <text x="580.299" y="-94.0112" fill="#000000" font-family="sans-serif" font-size="16" font-weight="bold">X</text>
  </g>
  <g id="edge24" class="edge">
   <title>D-&gt;X</title>
   <path d="m586.06-157.14c0.1105 8.9783 0.2419 19.65 0.3631 29.504" fill="none" stroke="#000" stroke-width="2"/>
   <polygon points="589.92 -127.43 586.55 -117.38 582.92 -127.34" stroke="#000" stroke-width="2"/>
  </g>
  <g id="node26" class="node">
   <title>C</title>
   <ellipse cx="644.8" cy="-96.811" rx="19.6" ry="19.6" fill="none" stroke="#000" stroke-width="2"/>
   <text x="638.799" y="-94.0112" fill="#000000" font-family="sans-serif" font-size="16" font-weight="bold">C</text>
  </g>
  <g id="edge25" class="edge">
   <title>K-&gt;C</title>
   <path d="m644.8-157.14v30.277" fill="none" stroke="#000" stroke-width="2"/>
   <polygon points="648.3 -126.82 644.8 -116.82 641.3 -126.82" stroke="#000" stroke-width="2"/>
  </g>
  <g id="node27" class="node">
   <title>Y</title>
   <ellipse cx="702.8" cy="-96.811" rx="19.6" ry="19.6" fill="none" stroke="#000" stroke-width="2"/>
   <text x="696.799" y="-94.0112" fill="#000000" font-family="sans-serif" font-size="16" font-weight="bold">Y</text>
  </g>
  <g id="edge26" class="edge">
   <title>K-&gt;Y</title>
   <path d="m656.82-161.23c8.1957 11.482 19.185 26.878 28.366 39.739" fill="none" stroke="#000" stroke-width="2"/>
   <polygon points="688.23 -123.24 691.19 -113.07 682.53 -119.18" stroke="#000" stroke-width="2"/>
  </g>
  <g id="node28" class="node">
   <title>Z</title>
   <ellipse cx="760.8" cy="-96.811" rx="19.6" ry="19.6" fill="none" stroke="#000" stroke-width="2"/>
   <text x="754.799" y="-94.0112" fill="#000000" font-family="sans-serif" font-size="16" font-weight="bold">Z</text>
  </g>
  <g id="edge27" class="edge">
   <title>G-&gt;Z</title>
   <path d="m782.02-158.4c-3.4201 9.9249-7.632 22.148-11.4 33.081" fill="none" stroke="#000" stroke-width="2"/>
   <polygon points="773.89 -124.05 767.32 -115.74 767.27 -126.33" stroke="#000" stroke-width="2"/>
  </g>
  <g id="node29" class="node">
   <title>Q</title>
   <ellipse cx="819.8" cy="-96.811" rx="21.429" ry="21.429" fill="none" stroke="#000" stroke-width="2"/>
   <text x="812.799" y="-94.0112" fill="#000000" font-family="sans-serif" font-size="16" font-weight="bold">Q</text>
  </g>
  <g id="edge28" class="edge">
   <title>G-&gt;Q</title>
   <path d="m796.15-158.81c3.7012 9.7014 8.2695 21.675 12.401 32.506" fill="none" stroke="#000" stroke-width="2"/>
   <polygon points="811.89 -127.37 812.18 -116.78 805.35 -124.87" stroke="#000" stroke-width="2"/>
  </g>
  <g id="node30" class="node">
   <title>d</title>
   <ellipse cx="876.8" cy="-96.811" rx="18" ry="18" fill="#ffc0cb" stroke="#000" stroke-width="2"/>
  </g>
  <g id="edge29" class="edge">
   <title>O-&gt;d</title>
   <path d="m876.8-156.72v31.494" fill="none" stroke="#000" stroke-width="2"/>
   <polygon points="880.3 -124.99 876.8 -114.99 873.3 -124.99" stroke="#000" stroke-width="2"/>
  </g>
  <g id="node31" class="node">
   <title>e</title>
   <ellipse cx="932.8" cy="-96.811" rx="18" ry="18" fill="#ffc0cb" stroke="#000" stroke-width="2"/>
  </g>
  <g id="edge30" class="edge">
   <title>O-&gt;e</title>
   <path d="m888.95-160.43c8.1546 11.832 18.983 27.544 27.839 40.394" fill="none" stroke="#000" stroke-width="2"/>
   <polygon points="919.76 -121.91 922.55 -111.68 913.99 -117.93" stroke="#000" stroke-width="2"/>
  </g>
  <g id="node32" class="node">
   <title>5</title>
   <ellipse cx="19.799" cy="-19.799" rx="19.6" ry="19.6" fill="none" stroke="#000" stroke-width="2"/>
   <text x="13.799" y="-16.999" fill="#000000" font-family="sans-serif" font-size="16" font-weight="bold">5</text>
  </g>
  <g id="edge31" class="edge">
   <title>H-&gt;5</title>
   <path d="m64.149-79.72c-7.7362 10.452-17.757 23.992-26.316 35.555" fill="none" stroke="#000" stroke-width="2"/>
   <polygon points="40.398 -41.747 31.635 -35.791 34.771 -45.911" stroke="#000" stroke-width="2"/>
  </g>
  <g id="node33" class="node">
   <title>4</title>
   <ellipse cx="77.799" cy="-19.799" rx="19.6" ry="19.6" fill="none" stroke="#000" stroke-width="2"/>
   <text x="71.799" y="-16.999" fill="#000000" font-family="sans-serif" font-size="16" font-weight="bold">4</text>
  </g>
  <g id="edge32" class="edge">
   <title>H-&gt;4</title>
   <path d="m77.078-75.359c0.1016 7.8234 0.2185 16.824 0.3282 25.271" fill="none" stroke="#000" stroke-width="2"/>
   <polygon points="80.909 -49.859 77.539 -39.815 73.909 -49.768" stroke="#000" stroke-width="2"/>
  </g>
  <g id="node34" class="node">
   <title>f</title>
   <ellipse cx="135.8" cy="-19.799" rx="18" ry="18" fill="#ffc0cb" stroke="#000" stroke-width="2"/>
  </g>
  <g id="edge33" class="edge">
   <title>V-&gt;f</title>
   <path d="m136.53-76.173c-0.1126 8.6756-0.2455 18.906-0.3669 28.254" fill="none" stroke="#000" stroke-width="2"/>
   <polygon points="139.66 -47.824 136.03 -37.87 132.66 -47.915" stroke="#000" stroke-width="2"/>
  </g>
  <g id="node35" class="node">
   <title>3</title>
   <ellipse cx="191.8" cy="-19.799" rx="19.6" ry="19.6" fill="none" stroke="#000" stroke-width="2"/>
   <text x="185.799" y="-16.999" fill="#000000" font-family="sans-serif" font-size="16" font-weight="bold">3</text>
  </g>
  <g id="edge34" class="edge">
   <title>V-&gt;3</title>
   <path d="m148.73-80.101c7.4521 10.435 17.178 24.053 25.501 35.708" fill="none" stroke="#000" stroke-width="2"/>
   <polygon points="177.3 -46.121 180.26 -35.949 171.6 -42.053" stroke="#000" stroke-width="2"/>
  </g>
  <g id="node36" class="node">
   <title>g</title>
   <ellipse cx="248.8" cy="-19.799" rx="18" ry="18" fill="#ffc0cb" stroke="#000" stroke-width="2"/>
  </g>
  <g id="edge35" class="edge">
   <title>b-&gt;g</title>
   <path d="m249.56-78.56c-0.1183 9.1114-0.2641 20.338-0.3964 30.529" fill="none" stroke="#000" stroke-width="2"/>
   <polygon points="252.66 -47.872 249.03 -37.919 245.66 -47.963" stroke="#000" stroke-width="2"/>
  </g>
  <g id="node37" class="node">
   <title>2</title>
   <ellipse cx="304.8" cy="-19.799" rx="19.6" ry="19.6" fill="none" stroke="#000" stroke-width="2"/>
   <text x="298.799" y="-16.999" fill="#000000" font-family="sans-serif" font-size="16" font-weight="bold">2</text>
  </g>
  <g id="edge36" class="edge">
   <title>b-&gt;2</title>
   <path d="m260.4-81.962c7.6596 10.725 18.174 25.448 27.048 37.873" fill="none" stroke="#000" stroke-width="2"/>
   <polygon points="290.31 -46.104 293.28 -35.932 284.62 -42.035" stroke="#000" stroke-width="2"/>
  </g>
  <g id="node38" class="node">
   <title>h</title>
   <ellipse cx="413.8" cy="-19.799" rx="18" ry="18" fill="#ffc0cb" stroke="#000" stroke-width="2"/>
  </g>
  <g id="edge37" class="edge">
   <title>J-&gt;h</title>
   <path d="m458.74-81.596c-8.0804 11.112-19.175 26.37-28.318 38.944" fill="none" stroke="#000" stroke-width="2"/>
   <polygon points="433.17 -40.489 424.46 -34.46 427.51 -44.606" stroke="#000" stroke-width="2"/>
  </g>
  <g id="node39" class="node">
   <title>1</title>
   <ellipse cx="469.8" cy="-19.799" rx="19.6" ry="19.6" fill="none" stroke="#000" stroke-width="2"/>
   <text x="463.799" y="-16.999" fill="#000000" font-family="sans-serif" font-size="16" font-weight="bold">1</text>
  </g>
  <g id="edge38" class="edge">
   <title>J-&gt;1</title>
   <path d="m469.8-78.169v28.545" fill="none" stroke="#000" stroke-width="2"/>
   <polygon points="473.3 -49.616 469.8 -39.616 466.3 -49.616" stroke="#000" stroke-width="2"/>
  </g>
  <g id="node40" class="node">
   <title>6</title>
   <ellipse cx="527.8" cy="-19.799" rx="19.6" ry="19.6" fill="none" stroke="#000" stroke-width="2"/>
   <text x="521.799" y="-16.999" fill="#000000" font-family="sans-serif" font-size="16" font-weight="bold">6</text>
  </g>
  <g id="edge39" class="edge">
   <title>B-&gt;6</title>
   <path d="m527.8-76.173v26.204" fill="none" stroke="#000" stroke-width="2"/>
   <polygon points="531.3 -49.696 527.8 -39.696 524.3 -49.696" stroke="#000" stroke-width="2"/>
  </g>
  <g id="node41" class="node">
   <title>i</title>
   <ellipse cx="583.8" cy="-19.799" rx="18" ry="18" fill="#ffc0cb" stroke="#000" stroke-width="2"/>
  </g>
  <g id="edge40" class="edge">
   <title>B-&gt;i</title>
   <path d="m539.95-80.101c7.9726 10.964 18.501 25.444 27.244 37.466" fill="none" stroke="#000" stroke-width="2"/>
   <polygon points="570.13 -44.547 573.18 -34.4 564.47 -40.43" stroke="#000" stroke-width="2"/>
  </g>
  <g id="node42" class="node">
   <title>7</title>
   <ellipse cx="706.8" cy="-19.799" rx="19.6" ry="19.6" fill="none" stroke="#000" stroke-width="2"/>
   <text x="700.799" y="-16.999" fill="#000000" font-family="sans-serif" font-size="16" font-weight="bold">7</text>
  </g>
  <g id="edge41" class="edge">
   <title>Z-&gt;7</title>
   <path d="m749.35-80.479c-7.3026 10.415-16.907 24.112-25.142 35.857" fill="none" stroke="#000" stroke-width="2"/>
   <polygon points="726.84 -42.286 718.23 -36.108 721.11 -46.305" stroke="#000" stroke-width="2"/>
  </g>
  <g id="node43" class="node">
   <title>j</title>
   <ellipse cx="762.8" cy="-19.799" rx="18" ry="18" fill="#ffc0cb" stroke="#000" stroke-width="2"/>
  </g>
  <g id="edge42" class="edge">
   <title>Z-&gt;j</title>
   <path d="m761.31-76.979c0.2271 8.7427 0.4981 19.18 0.7462 28.73" fill="none" stroke="#000" stroke-width="2"/>
   <polygon points="765.57 -48.069 762.33 -37.981 758.57 -47.887" stroke="#000" stroke-width="2"/>
  </g>
  <g id="node44" class="node">
   <title>8</title>
   <ellipse cx="820.8" cy="-19.799" rx="19.6" ry="19.6" fill="none" stroke="#000" stroke-width="2"/>
   <text x="814.799" y="-16.999" fill="#000000" font-family="sans-serif" font-size="16" font-weight="bold">8</text>
  </g>
  <g id="edge43" class="edge">
   <title>d-&gt;8</title>
   <path d="m866-81.962c-7.7988 10.725-18.504 25.448-27.54 37.873" fill="none" stroke="#000" stroke-width="2"/>
   <polygon points="841.24 -41.961 832.53 -35.932 835.58 -46.078" stroke="#000" stroke-width="2"/>
  </g>
  <g id="node45" class="node">
   <title>k</title>
   <ellipse cx="876.8" cy="-19.799" rx="18" ry="18" fill="#ffc0cb" stroke="#000" stroke-width="2"/>
  </g>
  <g id="edge44" class="edge">
   <title>d-&gt;k</title>
   <path d="m876.8-78.56v30.529" fill="none" stroke="#000" stroke-width="2"/>
   <polygon points="880.3 -47.919 876.8 -37.919 873.3 -47.919" stroke="#000" stroke-width="2"/>
  </g>
  <g id="node46" class="node">
   <title>9</title>
   <ellipse cx="932.8" cy="-19.799" rx="19.6" ry="19.6" fill="none" stroke="#000" stroke-width="2"/>
   <text x="926.799" y="-16.999" fill="#000000" font-family="sans-serif" font-size="16" font-weight="bold">9</text>
  </g>
  <g id="edge45" class="edge">
   <title>e-&gt;9</title>
   <path d="m932.8-78.56v28.662" fill="none" stroke="#000" stroke-width="2"/>
   <polygon points="936.3 -49.812 932.8 -39.812 929.3 -49.812" stroke="#000" stroke-width="2"/>
  </g>
  <g id="node47" class="node">
   <title>0</title>
   <ellipse cx="990.8" cy="-19.799" rx="19.6" ry="19.6" fill="none" stroke="#000" stroke-width="2"/>
   <text x="984.799" y="-16.999" fill="#000000" font-family="sans-serif" font-size="16" font-weight="bold">0</text>
  </g>
  <g id="edge46" class="edge">
   <title>e-&gt;0</title>
   <path d="m943.71-82.326c8.1053 10.762 19.35 25.692 28.818 38.265" fill="none" stroke="#000" stroke-width="2"/>
   <polygon points="975.52 -45.908 978.74 -35.814 969.93 -41.697" stroke="#000" stroke-width="2"/>
  </g>
 </g>
</svg>
