<?xml version="1.0" encoding="UTF-8" standalone="no"?>
<!-- Created with Inkscape (http://www.inkscape.org/) -->

<svg
   xmlns:dc="http://purl.org/dc/elements/1.1/"
   xmlns:cc="http://creativecommons.org/ns#"
   xmlns:rdf="http://www.w3.org/1999/02/22-rdf-syntax-ns#"
   xmlns:svg="http://www.w3.org/2000/svg"
   xmlns="http://www.w3.org/2000/svg"
   xmlns:sodipodi="http://sodipodi.sourceforge.net/DTD/sodipodi-0.dtd"
   xmlns:inkscape="http://www.inkscape.org/namespaces/inkscape"
   width="256"
   height="256"
   id="svg2"
   version="1.1"
   inkscape:version="0.48.1 r9760"
   sodipodi:docname="calendar.svg">
  <defs
     id="defs4" />
  <sodipodi:namedview
     id="base"
     pagecolor="#ffffff"
     bordercolor="#666666"
     borderopacity="1.0"
     inkscape:pageopacity="0.0"
     inkscape:pageshadow="2"
     inkscape:zoom="1.979899"
     inkscape:cx="171.52289"
     inkscape:cy="88.574523"
     inkscape:document-units="px"
     inkscape:current-layer="layer1"
     showgrid="false"
     width="256px"
     inkscape:window-width="1680"
     inkscape:window-height="977"
     inkscape:window-x="0"
     inkscape:window-y="25"
     inkscape:window-maximized="1" />
  <metadata
     id="metadata7">
    <rdf:RDF>
      <cc:Work
         rdf:about="">
        <dc:format>image/svg+xml</dc:format>
        <dc:type
           rdf:resource="http://purl.org/dc/dcmitype/StillImage" />
        <dc:title></dc:title>
      </cc:Work>
    </rdf:RDF>
  </metadata>
  <g
     inkscape:label="Layer 1"
     inkscape:groupmode="layer"
     id="layer1"
     transform="translate(0,-796.3622)">
    <rect
       style="fill:#c1ffff;fill-opacity:1;stroke:#000000;stroke-width:1;stroke-opacity:1;stroke-miterlimit:4;stroke-dasharray:none"
       id="rect2985"
       width="249.00398"
       height="249.00398"
       x="3.498008"
       y="799.86023" />
    <rect
       style="fill:#7f7f7f;stroke:#000000;stroke-width:1;stroke-miterlimit:4;stroke-opacity:1;stroke-dasharray:none;fill-opacity:1"
       id="rect3755"
       width="33.905609"
       height="25.071075"
       x="10.501597"
       y="882.78955" />
    <rect
       style="fill:#7f7f7f;stroke:#000000;stroke-width:1;stroke-miterlimit:4;stroke-opacity:1;stroke-dasharray:none;fill-opacity:1"
       id="rect3755-7"
       width="33.905609"
       height="25.071075"
       x="44.32431"
       y="882.78955" />
    <rect
       style="fill:#7f7f7f;stroke:#000000;stroke-width:1;stroke-miterlimit:4;stroke-opacity:1;stroke-dasharray:none;fill-opacity:1"
       id="rect3755-5"
       width="33.905609"
       height="25.071075"
       x="78.147018"
       y="882.78955" />
    <rect
       style="fill:#7f7f7f;stroke:#000000;stroke-width:1;stroke-miterlimit:4;stroke-opacity:1;stroke-dasharray:none;fill-opacity:1"
       id="rect3755-7-7"
       width="33.905609"
       height="25.071075"
       x="111.96973"
       y="882.78955" />
    <rect
       style="fill:#7f7f7f;stroke:#000000;stroke-width:1;stroke-miterlimit:4;stroke-opacity:1;stroke-dasharray:none;fill-opacity:1"
       id="rect3755-7-6"
       width="33.905609"
       height="25.071075"
       x="145.79245"
       y="882.78955" />
    <rect
       style="fill:#7f7f7f;stroke:#000000;stroke-width:1;stroke-miterlimit:4;stroke-opacity:1;stroke-dasharray:none;fill-opacity:1"
       id="rect3755-5-9"
       width="33.905609"
       height="25.071075"
       x="179.61516"
       y="882.78955" />
    <rect
       style="fill:#f3ff8b;stroke:#000000;stroke-width:1;stroke-miterlimit:4;stroke-opacity:1;stroke-dasharray:none;fill-opacity:1"
       id="rect3755-7-7-1"
       width="33.905609"
       height="25.071075"
       x="213.43787"
       y="882.78955" />
    <rect
       style="fill:#f3ff8b;stroke:#000000;stroke-width:1;stroke-miterlimit:4;stroke-opacity:1;stroke-dasharray:none;fill-opacity:1"
       id="rect3755-6"
       width="33.905609"
       height="25.071075"
       x="10.5"
       y="907.79114" />
    <rect
       style="fill:#f3ff8b;stroke:#000000;stroke-width:1;stroke-miterlimit:4;stroke-opacity:1;stroke-dasharray:none;fill-opacity:1"
       id="rect3755-7-1"
       width="33.905609"
       height="25.071075"
       x="44.322712"
       y="907.79114" />
    <rect
       style="fill:#f3ff8b;stroke:#000000;stroke-width:1;stroke-miterlimit:4;stroke-opacity:1;stroke-dasharray:none;fill-opacity:1"
       id="rect3755-5-4"
       width="33.905609"
       height="25.071075"
       x="78.145424"
       y="907.79114" />
    <rect
       style="fill:#f3ff8b;stroke:#000000;stroke-width:1;stroke-miterlimit:4;stroke-opacity:1;stroke-dasharray:none;fill-opacity:1"
       id="rect3755-7-7-0"
       width="33.905609"
       height="25.071075"
       x="111.96813"
       y="907.79114" />
    <rect
       style="fill:#f3ff8b;stroke:#000000;stroke-width:1;stroke-miterlimit:4;stroke-opacity:1;stroke-dasharray:none;fill-opacity:1"
       id="rect3755-7-6-3"
       width="33.905609"
       height="25.071075"
       x="145.79085"
       y="907.79114" />
    <rect
       style="fill:#f3ff8b;stroke:#000000;stroke-width:1;stroke-miterlimit:4;stroke-opacity:1;stroke-dasharray:none;fill-opacity:1"
       id="rect3755-5-9-1"
       width="33.905609"
       height="25.071075"
       x="179.61356"
       y="907.79114" />
    <rect
       style="fill:#f3ff8b;stroke:#000000;stroke-width:1;stroke-miterlimit:4;stroke-opacity:1;stroke-dasharray:none;fill-opacity:1"
       id="rect3755-7-7-1-2"
       width="33.905609"
       height="25.071075"
       x="213.43626"
       y="907.79114" />
    <rect
       style="fill:#f3ff8b;stroke:#000000;stroke-width:1;stroke-miterlimit:4;stroke-opacity:1;stroke-dasharray:none;fill-opacity:1"
       id="rect3755-9"
       width="33.905609"
       height="25.071075"
       x="10.501598"
       y="932.78955" />
    <rect
       style="fill:#f3ff8b;stroke:#000000;stroke-width:1;stroke-miterlimit:4;stroke-opacity:1;stroke-dasharray:none;fill-opacity:1"
       id="rect3755-7-4"
       width="33.905609"
       height="25.071075"
       x="44.32431"
       y="932.78955" />
    <rect
       style="fill:#f3ff8b;stroke:#000000;stroke-width:1;stroke-miterlimit:4;stroke-opacity:1;stroke-dasharray:none;fill-opacity:1"
       id="rect3755-5-5"
       width="33.905609"
       height="25.071075"
       x="78.147018"
       y="932.78955" />
    <rect
       style="fill:#f3ff8b;stroke:#000000;stroke-width:1;stroke-miterlimit:4;stroke-opacity:1;stroke-dasharray:none;fill-opacity:1"
       id="rect3755-7-7-4"
       width="33.905609"
       height="25.071075"
       x="111.96973"
       y="932.78955" />
    <rect
       style="fill:#f3ff8b;stroke:#000000;stroke-width:1;stroke-miterlimit:4;stroke-opacity:1;stroke-dasharray:none;fill-opacity:1"
       id="rect3755-7-6-6"
       width="33.905609"
       height="25.071075"
       x="145.79245"
       y="932.78955" />
    <rect
       style="fill:#f3ff8b;stroke:#000000;stroke-width:1;stroke-miterlimit:4;stroke-opacity:1;stroke-dasharray:none;fill-opacity:1"
       id="rect3755-5-9-6"
       width="33.905609"
       height="25.071075"
       x="179.61516"
       y="932.78955" />
    <rect
       style="fill:#f3ff8b;stroke:#000000;stroke-width:1;stroke-miterlimit:4;stroke-opacity:1;stroke-dasharray:none;fill-opacity:1"
       id="rect3755-7-7-1-3"
       width="33.905609"
       height="25.071075"
       x="213.43787"
       y="932.78955" />
    <rect
       style="fill:#f3ff8b;stroke:#000000;stroke-width:1;stroke-miterlimit:4;stroke-opacity:1;stroke-dasharray:none;fill-opacity:1"
       id="rect3755-6-9"
       width="33.905609"
       height="25.071075"
       x="10.5"
       y="957.79114" />
    <rect
       style="fill:#f3ff8b;stroke:#000000;stroke-width:1;stroke-miterlimit:4;stroke-opacity:1;stroke-dasharray:none;fill-opacity:1"
       id="rect3755-7-1-5"
       width="33.905609"
       height="25.071075"
       x="44.322712"
       y="957.79114" />
    <rect
       style="fill:#f3ff8b;stroke:#000000;stroke-width:1;stroke-miterlimit:4;stroke-opacity:1;stroke-dasharray:none;fill-opacity:1"
       id="rect3755-5-4-2"
       width="33.905609"
       height="25.071075"
       x="78.145424"
       y="957.79114" />
    <rect
       style="fill:#f3ff8b;stroke:#000000;stroke-width:1;stroke-miterlimit:4;stroke-opacity:1;stroke-dasharray:none;fill-opacity:1"
       id="rect3755-7-7-0-1"
       width="33.905609"
       height="25.071075"
       x="111.96813"
       y="957.79114" />
    <rect
       style="fill:#f3ff8b;stroke:#000000;stroke-width:1;stroke-miterlimit:4;stroke-opacity:1;stroke-dasharray:none;fill-opacity:1"
       id="rect3755-7-6-3-3"
       width="33.905609"
       height="25.071075"
       x="145.79085"
       y="957.79114" />
    <rect
       style="fill:#f3ff8b;stroke:#000000;stroke-width:1;stroke-miterlimit:4;stroke-opacity:1;stroke-dasharray:none;fill-opacity:1"
       id="rect3755-5-9-1-0"
       width="33.905609"
       height="25.071075"
       x="179.61356"
       y="957.79114" />
    <rect
       style="fill:#f3ff8b;stroke:#000000;stroke-width:1;stroke-miterlimit:4;stroke-opacity:1;stroke-dasharray:none;fill-opacity:1"
       id="rect3755-7-7-1-2-9"
       width="33.905609"
       height="25.071075"
       x="213.43626"
       y="957.79114" />
    <rect
       style="fill:#f3ff8b;stroke:#000000;stroke-width:1;stroke-miterlimit:4;stroke-opacity:1;stroke-dasharray:none;fill-opacity:1"
       id="rect3755-60"
       width="33.905609"
       height="25.071075"
       x="10.501598"
       y="982.78955" />
    <rect
       style="fill:#f3ff8b;stroke:#000000;stroke-width:1;stroke-miterlimit:4;stroke-opacity:1;stroke-dasharray:none;fill-opacity:1"
       id="rect3755-7-3"
       width="33.905609"
       height="25.071075"
       x="44.32431"
       y="982.78955" />
    <rect
       style="fill:#f3ff8b;stroke:#000000;stroke-width:1;stroke-miterlimit:4;stroke-opacity:1;stroke-dasharray:none;fill-opacity:1"
       id="rect3755-5-3"
       width="33.905609"
       height="25.071075"
       x="78.147018"
       y="982.78955" />
    <rect
       style="fill:#f3ff8b;stroke:#000000;stroke-width:1;stroke-miterlimit:4;stroke-opacity:1;stroke-dasharray:none;fill-opacity:1"
       id="rect3755-7-7-6"
       width="33.905609"
       height="25.071075"
       x="111.96973"
       y="982.78955" />
    <rect
       style="fill:#f3ff8b;stroke:#000000;stroke-width:1;stroke-miterlimit:4;stroke-opacity:1;stroke-dasharray:none;fill-opacity:1"
       id="rect3755-7-6-1"
       width="33.905609"
       height="25.071075"
       x="145.79245"
       y="982.78955" />
    <rect
       style="fill:#f3ff8b;stroke:#000000;stroke-width:1;stroke-miterlimit:4;stroke-opacity:1;stroke-dasharray:none;fill-opacity:1"
       id="rect3755-5-9-8"
       width="33.905609"
       height="25.071075"
       x="179.61516"
       y="982.78955" />
    <rect
       style="fill:#f3ff8b;stroke:#000000;stroke-width:1;stroke-miterlimit:4;stroke-opacity:1;stroke-dasharray:none;fill-opacity:1"
       id="rect3755-7-7-1-7"
       width="33.905609"
       height="25.071075"
       x="213.43787"
       y="982.78955" />
    <rect
       style="fill:#f3ff8b;stroke:#000000;stroke-width:1;stroke-miterlimit:4;stroke-opacity:1;stroke-dasharray:none;fill-opacity:1"
       id="rect3755-6-5"
       width="33.905609"
       height="25.071075"
       x="10.5"
       y="1007.7911" />
    <rect
       style="fill:#f3ff8b;stroke:#000000;stroke-width:1;stroke-miterlimit:4;stroke-opacity:1;stroke-dasharray:none;fill-opacity:1"
       id="rect3755-7-1-1"
       width="33.905609"
       height="25.071075"
       x="44.322712"
       y="1007.7911" />
    <rect
       style="fill:#7f7f7f;stroke:#000000;stroke-width:1;stroke-miterlimit:4;stroke-opacity:1;stroke-dasharray:none;fill-opacity:1"
       id="rect3755-5-4-1"
       width="33.905609"
       height="25.071075"
       x="78.145424"
       y="1007.7911" />
    <rect
       style="fill:#7f7f7f;stroke:#000000;stroke-width:1;stroke-miterlimit:4;stroke-opacity:1;stroke-dasharray:none;fill-opacity:1"
       id="rect3755-7-7-0-0"
       width="33.905609"
       height="25.071075"
       x="111.96813"
       y="1007.7911" />
    <rect
       style="fill:#7f7f7f;stroke:#000000;stroke-width:1;stroke-miterlimit:4;stroke-opacity:1;stroke-dasharray:none;fill-opacity:1"
       id="rect3755-7-6-3-30"
       width="33.905609"
       height="25.071075"
       x="145.79085"
       y="1007.7911" />
    <rect
       style="fill:#7f7f7f;stroke:#000000;stroke-width:1;stroke-miterlimit:4;stroke-opacity:1;stroke-dasharray:none;fill-opacity:1"
       id="rect3755-5-9-1-04"
       width="33.905609"
       height="25.071075"
       x="179.61356"
       y="1007.7911" />
    <rect
       style="fill:#7f7f7f;stroke:#000000;stroke-width:1;stroke-miterlimit:4;stroke-opacity:1;stroke-dasharray:none;fill-opacity:1"
       id="rect3755-7-7-1-2-5"
       width="33.905609"
       height="25.071075"
       x="213.43626"
       y="1007.7911" />
    <rect
       style="fill:#93c281;fill-opacity:1;stroke:#000000;stroke-width:0.99659078999999995;stroke-miterlimit:4;stroke-opacity:1;stroke-dasharray:none"
       id="rect4219"
       width="227.0034"
       height="63.574841"
       x="14.498296"
       y="808.28906" />
    <path
       sodipodi:type="star"
       style="fill:#ffff00;fill-opacity:1;stroke:#000000;stroke-width:1;stroke-miterlimit:4;stroke-opacity:1;stroke-dasharray:none"
       id="path4221"
       sodipodi:sides="5"
       sodipodi:cx="43.92857"
       sodipodi:cy="36.357143"
       sodipodi:r1="21.562084"
       sodipodi:r2="10.781042"
       sodipodi:arg1="0.46364761"
       sodipodi:arg2="1.0919661"
       inkscape:flatsided="false"
       inkscape:rounded="0"
       inkscape:randomized="0"
       d="M 63.214284,46.000001 48.895841,45.92569 40.717281,57.678755 36.363312,44.038143 22.65817,39.891767 34.285712,31.535715 33.994028,17.22005 45.534214,25.696338 59.059085,20.995146 54.56377,34.589831 z"
       transform="translate(1.0714286,806.00506)"
       inkscape:transform-center-x="0.99234277"
       inkscape:transform-center-y="1.0922586" />
    <path
       sodipodi:type="star"
       style="fill:#ff0036;fill-opacity:1;stroke:#000000;stroke-width:1;stroke-miterlimit:4;stroke-opacity:1;stroke-dasharray:none"
       id="path4242"
       sodipodi:sides="5"
       sodipodi:cx="132.85715"
       sodipodi:cy="34.92857"
       sodipodi:r1="19.182926"
       sodipodi:r2="9.591464"
       sodipodi:arg1="0.50529019"
       sodipodi:arg2="1.1336087"
       inkscape:flatsided="true"
       inkscape:rounded="0"
       inkscape:randomized="0"
       d="m 149.64286,44.214284 -20.42988,9.547891 -15.39377,-16.479511 10.91602,-19.732789 22.14023,4.283976 z"
       transform="matrix(0.68072077,0.73254299,-0.73254299,0.68072077,151.93378,711.26203)"
       inkscape:transform-center-x="-1.4289554"
       inkscape:transform-center-y="0.41877475" />
    <path
       style="fill:#0000ff;fill-opacity:1;stroke:#000007;stroke-width:0.50000000000000000;stroke-miterlimit:4;stroke-opacity:1;stroke-dasharray:none"
       id="path4250"
       d="m 79.257375,20.187005 c 0.85403,1.00117 1.645184,2.051243 2.429882,3.106829 0.989645,1.23512 1.906455,2.524784 2.854121,3.792535 0.764173,1.136658 1.589471,2.238475 2.222353,3.457851 0.389425,0.750307 0.545862,1.196018 0.859961,1.979583 0.884766,2.227329 1.141503,4.584066 1.278944,6.9542 0.03144,3.240262 -0.347525,6.455808 -0.87828,9.645541 -0.298068,1.777437 -0.697943,3.251728 -1.851621,4.653251 -1.918563,1.79258 -4.550916,2.933548 -6.727454,4.198934 -1.258856,0.731867 2.517402,-1.464508 3.787396,-2.176873 0.239332,-0.134246 -0.463005,0.294673 -0.694508,0.442009 -1.30024,0.894852 -2.612413,1.770801 -3.942877,2.620369 -2.394073,1.752445 -4.738293,2.831201 -7.393745,3.800485 -0.784824,0.332321 -1.626696,0.546563 -2.402139,0.901256 -0.114268,0.05227 -0.435585,0.25078 -0.326651,0.188149 1.463827,-0.841613 2.927556,-1.683398 4.391334,-2.525098 -0.05069,-0.123696 -0.206526,-0.325427 -0.0279,-0.455722 0.187164,-0.136524 1.903896,-0.62755 2.148704,-0.705212 1.616438,-0.569817 3.127862,-1.429247 4.760308,-1.95257 0.394053,-0.126323 0.798319,-0.218235 1.197478,-0.327352 3.572651,-1.105217 7.316207,-1.288978 11.011223,-1.656907 4.351354,-0.561027 8.759696,-1.038405 13.003596,-2.204463 0.80108,-0.220107 1.58309,-0.504555 2.37463,-0.756833 -1.48046,0.712392 5.47252,-2.357121 4.02627,-1.97753 -0.89791,0.235672 -1.59224,1.381537 -2.50563,1.21569 -0.66289,-0.120361 1.00149,-0.905212 1.45082,-1.407215 1.24463,-1.390535 1.43121,-1.900184 2.37282,-3.513315 2.27186,-4.518286 3.2504,-9.189523 3.91109,-14.15663 0.22861,-1.971422 0.25802,-3.960148 0.0127,-5.931008 -0.10585,-0.850578 -0.25154,-1.707376 -0.5759,-2.507155 -0.11229,-0.276889 -0.28318,-0.526231 -0.42477,-0.789347 -0.43443,-0.510808 -0.87785,-0.822358 -1.53462,-0.48384 -0.18149,0.09354 -0.67787,0.452246 -0.49601,0.359422 3.98074,-2.03181 4.85186,-3.257029 3.30643,-1.395454 -1.60145,2.348244 -2.39328,5.078268 -2.97145,7.827568 -0.38014,2.103833 -0.35824,3.977486 0.24249,6.019456 0.40982,1.205821 0.93172,2.368339 1.3745,3.562369 0.50552,1.351184 1.0315,2.694808 1.61047,4.016341 0.47495,1.019194 1.03717,1.990464 1.61599,2.952793 0.65584,1.031184 1.46706,1.968779 2.43453,2.716451 0.75504,0.588192 1.55414,1.141656 2.43225,1.528663 0.95846,0.35428 1.99274,0.36528 3.00143,0.397528 1.7431,0.150488 3.29922,-0.408836 4.82481,-1.184087 0.34666,-0.205219 1.39974,-0.796882 1.03997,-0.615656 -1.09042,0.549255 -2.07563,1.333383 -3.23354,1.720585 -0.48929,0.16362 0.7917,-0.663616 1.15831,-1.026633 1.31924,-1.306324 2.31105,-2.792857 3.30268,-4.349571 2.0163,-3.427943 3.37126,-7.188746 4.67034,-10.932647 0.71012,-2.15326 1.50907,-4.359808 1.34899,-6.658551 -0.0503,-0.197143 -0.13058,-0.66184 -0.29495,-0.849845 -0.20134,-0.230274 -0.27574,0.326589 -0.23108,0.304756 1.46474,-0.716059 2.80263,-1.675461 4.27193,-2.382123 0.16168,-0.07776 -0.1851,0.307381 -0.27765,0.461071 -0.83455,1.547322 -1.18705,3.259312 -1.41605,4.983874 -0.12005,2.462983 0.59859,4.860567 1.21554,7.219703 0.45986,1.851974 0.97876,3.719999 0.81855,5.641264 -0.33543,1.829266 -1.55383,3.285906 -2.68283,4.699125 -2.30121,2.809042 -5.26022,4.897005 -8.32933,6.779049 -3.33935,1.935141 -6.6625,4.05538 -10.35007,5.296929 -0.0955,0.03216 -1.81156,0.53778 -2.00214,0.594028 -0.5353,0.197581 -1.13907,0.232879 -1.66136,0.474158 -0.0514,0.02373 -0.18162,0.134986 -0.13493,0.103015 4.70276,-3.220371 2.71467,-3.188878 5.0268,-3.118154 1.98269,0.04498 3.96626,0.032 5.94934,0.03278 2.86323,0.01696 5.59471,-0.371914 8.38115,-0.988367 2.60892,-0.603254 5.21728,-1.278434 7.6679,-2.379699 0.64399,-0.289396 2.48072,-1.34008 1.89556,-0.945035 -0.77065,0.520274 -1.63713,0.88213 -2.4557,1.323195 3.00758,-2.115145 5.62218,-4.74279 7.76995,-7.72614 0.48034,-0.667211 0.91143,-1.368533 1.36715,-2.052799 2.79907,-4.655932 4.01556,-9.960694 5.00536,-15.2396 0.46952,-3.500836 1.14663,-7.074797 0.65511,-10.609163 -0.41398,-1.634012 -1.50343,-1.874636 -3.02578,-1.770365 -0.22285,0.06616 -0.45539,0.10571 -0.66854,0.198478 -0.20724,0.0902 -0.78217,0.4531 -0.58301,0.346234 1.32327,-0.710031 2.58877,-1.534393 3.95581,-2.155988 0.21971,-0.0999 -0.32371,0.360842 -0.45427,0.563837 -0.36093,0.561178 -0.42517,0.894261 -0.63617,1.528855 -0.53155,3.6489 0.35401,7.318449 1.15699,10.860606 1.29573,4.916337 2.87153,9.756483 4.61215,14.532081 1.01271,2.344968 1.98807,4.718598 3.26103,6.937727 0.6759,1.369975 1.72023,2.32568 3.01501,3.093797 0.31177,0.156632 0.61549,0.330443 0.93532,0.469896 0.81867,0.35696 1.91978,0.709553 2.75127,0.968819 2.03372,0.634126 4.07816,1.17407 6.15061,1.664495 3.82419,0.845643 7.73667,1.479052 11.38949,2.936494 0.4234,0.23118 0.86837,0.369173 1.1132,0.818714 0.14016,0.257356 0.16693,0.730554 -0.14588,0.916475 -4.72489,2.808278 -3.36875,2.500658 -6.12005,2.908514 -4.60074,0.468929 -9.21095,-0.06072 -13.7779,-0.608397 -6.20848,-0.868296 -12.38492,-2.009864 -18.4946,-3.415325 -0.98268,-0.348781 -3.88065,-0.661476 -3.51593,-2.37909 0.0409,-0.192726 0.15562,-0.362013 0.23343,-0.543019 1.10204,-1.445291 2.54737,-2.596651 3.84417,-3.864378 3.19421,-3.337453 5.75141,-7.205241 8.38481,-10.98193 2.80118,-4.000506 5.81142,-7.846836 8.94102,-11.594012 1.11837,-1.347157 0.58654,-0.705389 1.5958,-1.925049 0,0 4.7204,-2.001784 4.7204,-2.001784 l 0,0 c -1.07537,1.247495 -0.50976,0.590536 -1.69655,1.971111 -3.26028,3.724043 -6.35359,7.590282 -9.19158,11.648127 -2.57225,3.714988 -5.00446,7.554136 -8.02962,10.926979 -1.2301,1.256052 -2.54586,2.421009 -3.77617,3.675943 -0.005,0.0076 -0.44349,0.601602 -0.44855,0.652172 -0.0789,0.788521 2.61978,1.472193 2.98742,1.621797 5.99774,1.613731 12.13003,2.713183 18.29108,3.48006 4.66239,0.489779 9.39011,0.951666 14.05555,0.221662 0.31061,-0.0718 1.18905,-0.403734 0.93183,-0.215389 -1.21196,0.887463 -2.60808,1.497839 -3.84574,2.349107 -0.14264,0.09811 0.59618,0.06843 0.54631,-0.131358 -0.0772,-0.309183 -0.71364,-0.60134 -0.85728,-0.690693 -3.54097,-1.563913 -7.40441,-2.156584 -11.1601,-2.991915 -2.10725,-0.493246 -4.20097,-1.015705 -6.2794,-1.620865 -0.992,-0.288833 -1.94183,-0.566087 -2.89182,-0.969668 -0.33774,-0.143478 -0.65885,-0.3233 -0.98827,-0.48495 -1.36669,-0.831656 -2.48068,-1.845138 -3.16774,-3.320117 -1.21301,-2.293714 -2.11951,-4.730923 -3.06785,-7.141907 -1.64946,-4.830335 -3.19125,-9.700341 -4.56928,-14.615286 -0.87754,-3.576365 -1.84734,-7.226509 -1.57313,-10.942035 0.1331,-0.506831 0.47585,-2.00902 0.93903,-2.33267 1.99957,-1.397227 3.91287,-3.092108 6.34421,-3.436778 1.76628,0.07467 2.95109,0.593669 3.37277,2.447541 0.36314,3.653152 -0.3925,7.293672 -0.89502,10.899609 -0.9945,5.307704 -2.14831,10.66034 -4.87593,15.389874 -0.44627,0.693214 -0.86782,1.402987 -1.33882,2.079642 -2.10414,3.022854 -4.67731,5.687393 -7.64731,7.866276 -2.00094,1.17982 -3.97803,2.401067 -6.00283,3.539459 -2.99876,1.685972 -6.41218,2.454988 -9.71288,3.291288 -1.27647,0.278452 -1.80164,0.420458 -3.06709,0.596155 -1.80283,0.250307 -3.62779,0.286739 -5.44358,0.353925 -2.02804,0.01369 -4.05622,0.04165 -6.08427,0.03099 -2.21164,-0.147148 -0.7789,0.06915 3.41477,-3.260007 0.0576,-0.04574 0.91617,-0.212942 0.98858,-0.231564 0.24364,-0.06265 0.48645,-0.128454 0.72968,-0.192681 1.56121,-0.447915 3.07183,-0.959165 4.54664,-1.64979 0.53796,-0.251919 2.06625,-1.156376 1.59517,-0.794503 -0.77081,0.59212 -1.66977,0.99543 -2.50465,1.493145 3.03637,-1.800084 5.96904,-3.815815 8.24586,-6.553471 1.0743,-1.33716 2.24341,-2.713786 2.71097,-4.397002 0.30568,-1.860717 -0.21572,-3.715047 -0.62961,-5.522493 -0.61073,-2.416233 -1.3658,-4.847425 -1.35477,-7.360824 0.18108,-1.753068 0.5112,-3.495557 1.26548,-5.103307 0.84889,-2.24155 0.21445,-0.893323 4.94034,-3.540787 0.21736,-0.121769 0.58699,0.269536 0.66665,0.397167 0.17453,0.279617 0.25516,0.745653 0.32752,1.041754 0.17163,2.406446 -0.68026,4.698043 -1.45365,6.942106 -1.33433,3.76118 -2.68941,7.54977 -4.6451,11.040451 -0.95303,1.576282 -1.91331,3.091708 -3.17834,4.443646 -2.11303,2.258185 -4.996,3.529227 -7.65688,5.040993 -1.6814,0.766489 -3.17975,1.175542 -5.04471,1.035766 -1.07313,-0.04217 -2.16361,-0.09125 -3.15501,-0.551478 -0.8858,-0.448848 -1.70713,-1.011655 -2.46638,-1.652038 -0.98509,-0.818254 -1.85651,-1.779537 -2.54055,-2.865135 -0.60242,-0.978371 -1.16971,-1.974458 -1.63126,-3.028761 -0.56388,-1.335678 -1.09837,-2.683971 -1.63811,-4.029661 -0.45474,-1.204199 -0.96061,-2.390022 -1.35469,-3.61578 -0.65154,-2.205677 -0.63061,-4.026121 -0.24752,-6.302223 0.58653,-2.770659 1.32859,-5.525518 2.78123,-7.985749 1.59223,-2.352965 0.45578,-0.893689 5.53023,-3.921933 0.95773,-0.571538 1.88122,0.04998 2.43588,0.833991 0.14349,0.298822 0.31769,0.584755 0.43048,0.896466 0.30324,0.838027 0.44141,1.772783 0.52867,2.650957 0.20129,2.025636 0.14769,4.067786 -0.0935,6.087452 -0.66482,4.91149 -1.63021,9.7961 -3.78373,14.302833 -0.904,1.652954 -1.08639,2.184245 -2.29624,3.625183 -0.44239,0.526881 -0.87041,1.089393 -1.43304,1.485312 -3.12198,2.196912 -6.38634,4.193385 -9.95354,5.550759 -0.79088,0.23659 -1.57369,0.502095 -2.37265,0.709771 -4.285588,1.113956 -8.711989,1.615551 -13.090945,2.19498 -3.744817,0.389724 -7.524266,0.680469 -11.127095,1.860012 -2.059181,0.646684 -3.994993,1.591282 -6.015922,2.344271 -0.566665,0.189799 -2.21659,0.972833 -2.737989,0.398694 -0.107972,-0.118894 -0.142442,-0.287898 -0.213662,-0.431846 1.558237,-0.919861 3.107489,-1.855115 4.674711,-2.759583 0.260545,-0.150364 0.563802,-0.209999 0.845799,-0.314739 0.628866,-0.233576 1.25064,-0.485655 1.882512,-0.711177 1.955297,-0.735084 6.281724,-2.893915 -1.610883,1.319219 1.361481,-0.818955 2.677615,-1.709972 3.979484,-2.619158 2.275684,-1.550603 0.66794,-0.479158 5.796769,-3.42892 1.27659,-0.734209 -2.545888,1.481023 -3.819757,2.219943 -0.202183,0.117278 0.406197,-0.2316 0.604693,-0.355015 0.190067,-0.118175 0.37871,-0.239108 0.560604,-0.369513 0.174857,-0.12536 0.339195,-0.26478 0.508793,-0.39717 1.267143,-1.251512 1.759839,-2.713354 2.094933,-4.446983 0.623209,-3.146328 1.034013,-6.328052 0.955792,-9.544412 -0.172119,-2.304906 -0.43799,-4.600269 -1.270188,-6.77666 C 82.847797,34.316801 82.66202,33.799116 82.306925,33.115968 81.683451,31.9165 80.860769,30.837551 80.095094,29.729064 79.124105,28.474203 78.19007,27.19238 77.198798,25.953549 c -0.766324,-1.040727 -1.535593,-2.088168 -2.45754,-2.999065 0,0 4.516117,-2.767479 4.516117,-2.767479 z"
       inkscape:connector-curvature="0"
       transform="translate(0,796.3622)" />
  </g>
</svg>
